<svg xmlns="http://www.w3.org/2000/svg" xmlns:xlink="http://www.w3.org/1999/xlink" xmlns:inkscape="http://www.inkscape.org/namespaces/inkscape" version="1.1" width="665.725" height="123.436" viewBox="0 0 665.725 123.436">
<defs>
<clipPath id="clip_1">
<path transform="matrix(1,0,0,-1,0,123.436)" d="M0 123.436H665.725V0H0Z"/>
</clipPath>
</defs>
<g inkscape:groupmode="layer" inkscape:label="Camada 2">
<path transform="matrix(1,0,0,-1,34.5985,84.3742)" d="M0 0V-1.032L-20.552-.833-11.382-.072Z" fill="#d15d60"/>
<g clip-path="url(#clip_1)">
<path transform="matrix(1,0,0,-1,88.5821,28.4245)" d="M0 0C1.21 .023 2.723 1.611 3.314 2.293 3.95 3.98 3.447 6.359 3.571 8.618L22.596 8.693 31.191-.375C31.431-2.165 31.498-4.28 33.889-4.563 35.688-4.776 37.499-3.369 37.425-1.222 37.351 .956 35.232 1.702 33.245 1.524L23.514 10.975 3.631 11.035 3.65 28.424 39.596 28.391 39.633-7.528 12.229-7.464 15.465-3.682-37.859-3.704C-37.164-2.472-35.97-1.165-34.741-.673Z" fill="#eb2129"/>
<path transform="matrix(1,0,0,-1,124.554,29.919999)" d="M0 0C0-.886-.718-1.604-1.604-1.604-2.491-1.604-3.209-.886-3.209 0-3.209 .886-2.491 1.604-1.604 1.604-.718 1.604 0 .886 0 0" fill="#e93740"/>
<path transform="matrix(1,0,0,-1,34.5986,85.4059)" d="M0 0C-1.443 .078-1.363 .597 0 1.032L48.357 2.747 53.698 8.575 9.542 8.605 16.407 15.519 71.003 16.311 92.332 37.559 122.562 37.622 141.847 56.635C143.781 56.306 145.732 56.584 146.512 58.302 147.115 59.633 146.965 61.319 145.793 62.367 144.589 63.443 142.977 63.348 141.636 62.679 140.147 61.936 140.244 59.86 140.119 58.443L126.326 44.801 121.314 40.057 90.979 39.952 70.026 18.95-25.871 21.076C-28.634 21.326-31.416 21.462-34.219 21.483L-34.599 21.924 41.992 24.054 46.527 28.494 3.075 28.584 9.826 35.372 54.495 36.481 60.101 42.191 8.152 43.582-12.449 43.79C-12.478 43.943-12.335 44.199-12.143 44.205L.96 44.657 60.426 44.652 104.521 44.505 148.908 85.392 195.307 85.289 144.188 38.322 131.644 26.89 102.992 26.947 57.837-15.735C57.277-14.066 57.652-12.682 57.499-11.02L25.255-10.945C26.1-9.549 27.107-8.711 28.233-7.798L53.997-7.754 60.563-1.17 41.119-.903 11.907-.382Z" fill="#ed222a"/>
<path transform="matrix(1,0,0,-1,134.8609,82.924098)" d="M0 0C-2.706 .536-7.036 3.004-4.726 5.843-.831 9.496 2.816 13.88 7.212 16.857L29.937 17.182 87.352-40.402 40.177-40.504-.456-2.517 21.512-2.449 30.606-11.909C30.906-13.168 30.472-15.438 31.777-16.113 33.638-17.077 35.269-16.902 36.406-15.778 37.774-14.424 37.57-12.671 36.865-11.356 36.013-9.764 33.957-10.073 32.556-10.038L22.028 .093Z" fill="#ed232b"/>
<path transform="matrix(1,0,0,-1,134.8609,82.924098)" d="M0 0C-2.838-.012-4.295 .632-6.664 3.357L-6.734-40.483-42.646-40.512-42.551-29.63-4.726 5.843C-5.069 3.89-3.43 3.002-2.008 .868-1.012 .723-.204 .748 0 0" fill="#ed242c"/>
<path transform="matrix(1,0,0,-1,179.8754,25.5635)" d="M0 0C0-.971-.788-1.759-1.759-1.759-2.73-1.759-3.518-.971-3.518 0-3.518 .971-2.73 1.759-1.759 1.759-.788 1.759 0 .971 0 0" fill="#e1252f"/>
<path transform="matrix(1,0,0,-1,170.6671,96.255199)" d="M0 0C0-.965-.782-1.747-1.747-1.747-2.712-1.747-3.494-.965-3.494 0-3.494 .965-2.712 1.747-1.747 1.747-.782 1.747 0 .965 0 0" fill="#e63133"/>
<path transform="matrix(1,0,0,-1,311.7847,84.316898)" d="M0 0C.486-.656 .377-1.463 .276-1.828 .145-2.305-.454-2.733-1.295-2.73L-10.987-2.704C-12.814-2.698-13.775-1.29-14.743 .04L-27.48 17.546-45.321 17.57-45.348-1.121C-45.349-2.462-46.545-2.82-47.663-2.783L-57.387-2.465-57.305 48.062-45.451 48.061-45.287 27.819-27.91 27.957-13.04 48.016-1.798 48.183C-1.112 48.194-.482 47.978-.302 47.664-.123 47.352 .093 46.313-.246 45.859L-17.162 23.171Z" fill="#2d313d"/>
<path transform="matrix(1,0,0,-1,665.6171,80.7764)" d="M0 0C-.042-3.903-3.346-6.185-7.087-6.19L-41.528-6.242C-43.768-6.246-46.331-5.504-47.81-3.921-50.082-1.491-50.249 2.21-49.298 5.331L-37.209 5.224C-37.248 4.04-36.932 1.68-35.998 1.413L-12.572 1.332C-11.257 3.91-11.335 6.833-12.456 9.378L-41.719 9.669C-45.612 9.708-48.711 12.436-49.264 16.175-49.754 19.493-49.735 22.78-49.078 26.104-48.424 29.416-45.411 31.444-41.982 31.449L-9.144 31.496C-7.239 31.498-4.66 31.063-3.411 29.707-1.169 27.272-1.181 23.587-1.888 20.413L-13.753 20.417C-13.822 21.512-13.98 23.713-14.909 24.152L-34.474 24.367C-35.393 24.377-36.279 24.017-36.678 23.632-37.954 22.403-37.599 16.94-36.105 16.92L-7.061 16.532C-3.064 16.478 .15 13.816 .107 9.922Z" fill="#2e323e"/>
<path transform="matrix(1,0,0,-1,467.1924,62.463399)" d="M0 0C-.001 2.085-1.578 3.654-3.389 3.657L-22.342 3.684C-24.005 3.686-26.133 2.661-26.166 .749L-26.597-24.403-36.348-24.61C-37.399-24.632-38.278-23.937-38.276-22.849L-38.207 12.905-26.889 13.094C-26.066 11.222-26.436 9.674-26.369 7.648-24.553 10.828-21.823 13.137-17.951 13.133L2.507 13.108C7.629 13.102 11.639 9.209 11.655 3.939L11.741-24.354 1.966-24.603C.881-24.631 .013-23.998 .012-22.88Z" fill="#2d323e"/>
<path transform="matrix(1,0,0,-1,529.2534,86.9182)" d="M0 0-.169 24.712C-.183 26.621-1.385 28.106-3.395 28.104L-22.817 28.085C-25.254 28.083-26.591 26.488-26.6 24.158L-26.697 .039-38.316-.028-38.429 37.455-26.92 37.505-26.363 32.038C-24.786 35.267-22.187 37.569-18.44 37.576L1.939 37.612C7.602 37.622 11.78 33.583 11.766 27.926L11.697 .047Z" fill="#2d323e"/>
<path transform="matrix(1,0,0,-1,357.9031,58.947198)" d="M0 0-21.39-.244C-23.502-.269-25.243-1.62-25.258-3.844L-25.425-27.878-36.985-28.004-37.115 9.464-25.851 9.625C-24.845 7.978-25.472 6.228-25.121 4.069-23.449 7.056-21.145 9.522-17.581 9.532L-.166 9.582C.38 6.377 .304 3.761 0 0" fill="#2d313d"/>
<path transform="matrix(1,0,0,-1,589.8355,78.0493)" d="M0 0-22.426 .007C-24.457 .008-25.964 1.56-25.968 3.528L-25.993 16.275C-25.997 18.313-24.542 20.109-22.389 20.108L.214 20.097C1.985 20.096 3.378 18.59 3.378 16.897L3.379 3.449C3.379 1.692 2.15-.001 0 0M5.598 28.715-27.78 28.741C-33.103 28.745-37.551 24.941-37.56 19.576L-37.59 .711C-37.598-4.504-33.595-8.826-28.156-8.828L5.79-8.843C11.248-8.845 15.048-4.392 15.052 .474L15.067 19.276C15.071 24.591 11.014 28.711 5.598 28.715" fill="#2d323e"/>
<path transform="matrix(1,0,0,-1,405.7369,74.957)" d="M0 0C-.002-1.475-1.404-3.045-3.207-3.051L-25.638-3.122C-27.711-3.128-29.378-1.783-29.375 .359L-29.358 13.782C-29.355 15.62-27.877 16.855-26.119 17.031L-3.507 17.032C-1.617 17.032 .021 15.512 .019 13.618ZM2.333 25.575-31.504 25.641C-36.818 25.651-41.119 21.705-41.127 16.437L-41.159-2.347C-41.168-7.953-36.598-12.039-30.958-12.02L2.594-11.905C8.047-11.887 11.771-7.354 11.778-2.384L11.802 16.002C11.809 21.26 7.753 25.565 2.333 25.575" fill="#2d323e"/>
</g>
</g>
</svg>
