<svg xmlns="http://www.w3.org/2000/svg" xmlns:xlink="http://www.w3.org/1999/xlink" xmlns:inkscape="http://www.inkscape.org/namespaces/inkscape" version="1.1" width="229.906" height="123.436" viewBox="0 0 229.906 123.436">
<defs>
<clipPath id="clip_1">
<path transform="matrix(1,0,0,-1,0,123.436)" d="M0 123.436H229.906V0H0Z"/>
</clipPath>
</defs>
<g inkscape:groupmode="layer" inkscape:label="Camada 2">
<path transform="matrix(1,0,0,-1,34.5985,84.3742)" d="M0 0V-1.032L-20.552-.833-11.382-.072Z" fill="#d15d60"/>
<g clip-path="url(#clip_1)">
<path transform="matrix(1,0,0,-1,88.5821,28.4245)" d="M0 0C1.21 .023 2.723 1.611 3.314 2.293 3.95 3.98 3.447 6.359 3.571 8.618L22.596 8.693 31.191-.375C31.431-2.165 31.498-4.28 33.889-4.563 35.688-4.776 37.499-3.369 37.425-1.222 37.351 .956 35.232 1.702 33.245 1.524L23.514 10.975 3.631 11.035 3.65 28.424 39.596 28.391 39.633-7.528 12.229-7.464 15.465-3.682-37.859-3.704C-37.164-2.472-35.97-1.165-34.741-.673Z" fill="#eb2129"/>
<path transform="matrix(1,0,0,-1,124.554,29.919999)" d="M0 0C0-.886-.718-1.604-1.604-1.604-2.491-1.604-3.209-.886-3.209 0-3.209 .886-2.491 1.604-1.604 1.604-.718 1.604 0 .886 0 0" fill="#e93740"/>
<path transform="matrix(1,0,0,-1,34.5986,85.4059)" d="M0 0C-1.443 .078-1.363 .597 0 1.032L48.357 2.747 53.698 8.575 9.542 8.605 16.407 15.519 71.003 16.311 92.332 37.559 122.562 37.622 141.847 56.635C143.781 56.306 145.732 56.584 146.512 58.302 147.115 59.633 146.965 61.319 145.793 62.367 144.589 63.443 142.977 63.348 141.636 62.679 140.147 61.936 140.244 59.86 140.119 58.443L126.326 44.801 121.314 40.057 90.979 39.952 70.026 18.95-25.871 21.076C-28.634 21.326-31.416 21.462-34.219 21.483L-34.599 21.924 41.992 24.054 46.527 28.494 3.075 28.584 9.826 35.372 54.495 36.481 60.101 42.191 8.152 43.582-12.449 43.79C-12.478 43.943-12.335 44.199-12.143 44.205L.96 44.657 60.426 44.652 104.521 44.505 148.908 85.392 195.307 85.289 144.188 38.322 131.644 26.89 102.992 26.947 57.837-15.735C57.277-14.066 57.652-12.682 57.499-11.02L25.255-10.945C26.1-9.549 27.107-8.711 28.233-7.798L53.997-7.754 60.563-1.17 41.119-.903 11.907-.382Z" fill="#ed222a"/>
<path transform="matrix(1,0,0,-1,134.8609,82.924098)" d="M0 0C-2.706 .536-7.036 3.004-4.726 5.843-.831 9.496 2.816 13.88 7.212 16.857L29.937 17.182 87.352-40.402 40.177-40.504-.456-2.517 21.512-2.449 30.606-11.909C30.906-13.168 30.472-15.438 31.777-16.113 33.638-17.077 35.269-16.902 36.406-15.778 37.774-14.424 37.57-12.671 36.865-11.356 36.013-9.764 33.957-10.073 32.556-10.038L22.028 .093Z" fill="#ed232b"/>
<path transform="matrix(1,0,0,-1,134.8609,82.924098)" d="M0 0C-2.838-.012-4.295 .632-6.664 3.357L-6.734-40.483-42.646-40.512-42.551-29.63-4.726 5.843C-5.069 3.89-3.43 3.002-2.008 .868-1.012 .723-.204 .748 0 0" fill="#ed242c"/>
<path transform="matrix(1,0,0,-1,179.8754,25.5635)" d="M0 0C0-.971-.788-1.759-1.759-1.759-2.73-1.759-3.518-.971-3.518 0-3.518 .971-2.73 1.759-1.759 1.759-.788 1.759 0 .971 0 0" fill="#e1252f"/>
<path transform="matrix(1,0,0,-1,170.6671,96.255199)" d="M0 0C0-.965-.782-1.747-1.747-1.747-2.712-1.747-3.494-.965-3.494 0-3.494 .965-2.712 1.747-1.747 1.747-.782 1.747 0 .965 0 0" fill="#e63133"/>
</g>
</g>
</svg>
